<svg version="1.1" id="Layer_1" xmlns="http://www.w3.org/2000/svg" xmlns:xlink="http://www.w3.org/1999/xlink" x="0px" y="0px"
	 width="100%" viewBox="0 0 512 512" enable-background="new 0 0 512 512" xml:space="preserve">
<path fill="#28397F" opacity="1.000000" stroke="none" 
	d="
M278.000000,0.999998 
	C356.298767,1.000000 434.597534,1.000000 512.948120,1.000000 
	C512.948120,171.556793 512.948120,342.113586 512.948120,513.000000 
	C432.978882,513.000000 352.957275,513.000000 272.502838,512.634705 
	C274.820343,505.408020 274.332123,504.298340 267.616394,502.200317 
	C263.174011,500.812531 258.807648,499.024872 254.266006,498.146545 
	C246.638672,496.671417 241.607025,492.499573 237.895416,485.754059 
	C236.032547,482.368439 235.980316,480.550385 238.712616,477.716034 
	C243.391022,472.862885 248.988449,468.089233 251.553421,462.140961 
	C264.582794,431.925446 276.675476,401.307404 289.285431,370.908875 
	C293.593933,360.522583 293.547119,349.913177 288.463440,340.480957 
	C273.342987,312.426483 257.318878,284.859161 241.668152,257.090027 
	C241.188675,256.239288 240.679306,255.280762 240.612091,254.341843 
	C240.033066,246.251633 239.552582,238.154373 239.021561,229.723709 
	C241.130646,229.480011 242.875702,229.600616 244.349365,229.025650 
	C246.146332,228.324554 248.468445,227.440231 249.265900,225.943741 
	C257.007324,211.416245 264.532684,196.771927 271.924011,182.062592 
	C272.558014,180.800873 272.353638,178.468307 271.573120,177.253601 
	C267.361786,170.699402 267.273041,170.781662 272.631073,164.807281 
	C273.729492,163.582504 274.654297,162.202011 275.683563,160.861404 
	C282.587799,164.866394 288.720825,168.505432 294.945129,171.981094 
	C296.639374,172.927170 298.574799,173.846878 300.457092,173.983032 
	C310.625702,174.718597 321.330994,167.917236 325.205994,158.552032 
	C327.049042,154.097626 328.905518,149.648041 330.832520,145.229691 
	C331.226288,144.326843 331.962463,143.573349 333.129639,141.913696 
	C334.360291,147.008286 335.343018,151.076553 336.398651,155.446701 
	C346.355469,153.190308 355.768127,151.160919 365.087646,148.768723 
	C365.926758,148.553360 366.837524,145.857681 366.570740,144.546738 
	C364.980072,136.730103 362.996643,128.994278 361.282867,121.201042 
	C360.904602,119.481010 360.617096,117.505226 361.086029,115.877098 
	C362.770264,110.028885 365.273346,104.380341 366.529816,98.457520 
	C367.402527,94.343681 368.887360,93.185150 373.040863,93.228554 
	C396.531158,93.473969 420.026978,93.232025 443.515747,93.545631 
	C448.762054,93.615669 450.348633,91.911491 449.805939,86.979462 
	C449.466187,83.891792 449.742706,80.736305 449.742706,76.972321 
	C460.593658,76.972321 470.969299,76.972321 481.306427,76.972321 
	C481.306427,73.929016 481.306427,71.556427 481.306427,68.744545 
	C470.609589,68.744545 460.340393,68.744545 449.787445,68.744545 
	C449.787445,65.817833 450.047485,63.299091 449.695587,60.868977 
	C449.462830,59.261818 448.351776,57.781857 447.633972,56.244949 
	C446.422333,57.245201 444.702118,58.003334 444.090057,59.289009 
	C441.844696,64.005692 438.327728,65.022461 433.295837,64.997742 
	C390.975983,64.789787 348.654694,64.879303 306.333832,64.879303 
	C304.380157,64.879303 302.426483,64.879303 300.115234,64.879303 
	C300.115234,62.633213 300.115234,60.940269 300.115234,59.048351 
	C301.367920,59.048351 302.386200,58.865665 303.313232,59.079247 
	C307.887390,60.133099 309.846893,58.364582 310.452240,53.706203 
	C311.048309,49.119152 312.448853,44.619648 313.711060,40.142246 
	C314.523590,37.260113 314.148438,35.536976 310.942902,34.465237 
	C309.581512,34.010067 308.329315,32.113174 307.755615,30.596148 
	C303.711945,19.903715 296.886383,11.600972 287.018555,5.842554 
	C284.073334,4.123877 281.009491,2.608512 278.000000,0.999998 
z"/>
<path fill="#FFFFFE" opacity="1.000000" stroke="none" 
	d="
M277.531342,0.999998 
	C281.009491,2.608512 284.073334,4.123877 287.018555,5.842554 
	C296.886383,11.600972 303.711945,19.903715 307.755615,30.596148 
	C308.329315,32.113174 309.581512,34.010067 310.942902,34.465237 
	C314.148438,35.536976 314.523590,37.260113 313.711060,40.142246 
	C312.448853,44.619648 311.048309,49.119152 310.452240,53.706203 
	C309.846893,58.364582 307.887390,60.133099 303.313232,59.079247 
	C302.386200,58.865665 301.367920,59.048351 300.115234,59.048351 
	C300.115234,60.940269 300.115234,62.633213 300.115234,64.879303 
	C302.426483,64.879303 304.380157,64.879303 306.333832,64.879303 
	C348.654694,64.879303 390.975983,64.789787 433.295837,64.997742 
	C438.327728,65.022461 441.844696,64.005692 444.090057,59.289009 
	C444.702118,58.003334 446.422333,57.245201 447.633972,56.244949 
	C448.351776,57.781857 449.462830,59.261818 449.695587,60.868977 
	C450.047485,63.299091 449.787445,65.817833 449.787445,68.744545 
	C460.340393,68.744545 470.609589,68.744545 481.306427,68.744545 
	C481.306427,71.556427 481.306427,73.929016 481.306427,76.972321 
	C470.969299,76.972321 460.593658,76.972321 449.742706,76.972321 
	C449.742706,80.736305 449.466187,83.891792 449.805939,86.979462 
	C450.348633,91.911491 448.762054,93.615669 443.515747,93.545631 
	C420.026978,93.232025 396.531158,93.473969 373.040863,93.228554 
	C368.887360,93.185150 367.402527,94.343681 366.529816,98.457520 
	C365.273346,104.380341 362.770264,110.028885 361.086029,115.877098 
	C360.617096,117.505226 360.904602,119.481010 361.282867,121.201042 
	C362.996643,128.994278 364.980072,136.730103 366.570740,144.546738 
	C366.837524,145.857681 365.926758,148.553360 365.087646,148.768723 
	C355.768127,151.160919 346.355469,153.190308 336.398651,155.446701 
	C335.343018,151.076553 334.360291,147.008286 333.129639,141.913696 
	C331.962463,143.573349 331.226288,144.326843 330.832520,145.229691 
	C328.905518,149.648041 327.049042,154.097626 325.205994,158.552032 
	C321.330994,167.917236 310.625702,174.718597 300.457092,173.983032 
	C298.574799,173.846878 296.639374,172.927170 294.945129,171.981094 
	C288.720825,168.505432 282.587799,164.866394 275.683563,160.861404 
	C274.654297,162.202011 273.729492,163.582504 272.631073,164.807281 
	C267.273041,170.781662 267.361786,170.699402 271.573120,177.253601 
	C272.353638,178.468307 272.558014,180.800873 271.924011,182.062592 
	C264.532684,196.771927 257.007324,211.416245 249.265900,225.943741 
	C248.468445,227.440231 246.146332,228.324554 244.349365,229.025650 
	C242.875702,229.600616 241.130646,229.480011 239.021561,229.723709 
	C239.552582,238.154373 240.033066,246.251633 240.612091,254.341843 
	C240.679306,255.280762 241.188675,256.239288 241.668152,257.090027 
	C257.318878,284.859161 273.342987,312.426483 288.463440,340.480957 
	C293.547119,349.913177 293.593933,360.522583 289.285431,370.908875 
	C276.675476,401.307404 264.582794,431.925446 251.553421,462.140961 
	C248.988449,468.089233 243.391022,472.862885 238.712616,477.716034 
	C235.980316,480.550385 236.032547,482.368439 237.895416,485.754059 
	C241.607025,492.499573 246.638672,496.671417 254.266006,498.146545 
	C258.807648,499.024872 263.174011,500.812531 267.616394,502.200317 
	C274.332123,504.298340 274.820343,505.408020 272.034973,512.634705 
	C243.979111,513.000000 215.958206,513.000000 187.339478,512.569580 
	C188.370010,504.030182 189.438446,495.759308 191.728714,487.841827 
	C199.504471,460.960999 205.731491,433.750427 210.485184,406.184540 
	C210.842407,404.113037 211.765610,402.061981 212.779785,400.193604 
	C218.971222,388.787354 225.176529,377.386444 231.581741,366.099823 
	C233.369949,362.948792 232.943802,361.535950 229.796417,359.453613 
	C225.330292,356.498871 220.666855,353.110809 217.663422,348.808075 
	C206.813950,333.265045 196.701614,317.209198 186.090256,301.496033 
	C184.699448,299.436554 181.746536,296.710510 180.016663,297.026611 
	C177.729202,297.444641 175.119186,300.193268 174.053375,302.570374 
	C162.757095,327.765106 151.858353,353.138153 140.554260,378.329285 
	C138.058365,383.891357 134.891556,389.307098 131.195404,394.150513 
	C108.974991,423.268066 86.431976,452.139587 64.245506,481.282715 
	C61.976196,484.263580 60.727417,488.394379 60.102642,492.173004 
	C58.966660,499.043396 58.655415,506.050140 58.000000,513.000000 
	C41.979103,513.000000 25.958210,513.000000 9.501823,512.647339 
	C13.160120,504.859192 17.302500,497.449646 21.303610,489.964569 
	C22.038023,488.590637 22.900726,486.696991 22.508787,485.406219 
	C20.231855,477.907623 22.092142,470.805115 24.889122,464.119995 
	C36.063557,437.411804 47.878017,410.969055 58.859440,384.183655 
	C62.797180,374.578888 68.513100,366.827423 76.476982,360.482422 
	C79.212601,358.302887 82.259239,356.420135 84.620583,353.894012 
	C86.517242,351.864990 88.570953,349.186432 88.880859,346.595795 
	C91.489769,324.786987 93.762199,302.937073 96.020256,281.087585 
	C96.650307,274.991089 97.079521,274.146912 103.287804,274.399414 
	C107.018791,274.551147 108.506432,273.026978 109.662048,269.757294 
	C112.932625,260.503571 116.457314,251.336746 120.055016,242.203873 
	C120.816978,240.269608 121.934807,238.097885 123.540825,236.940643 
	C129.720535,232.487793 132.513474,226.251083 134.633362,219.213654 
	C138.359726,206.843185 138.689621,206.771713 127.682899,199.816483 
	C124.261360,197.654373 124.007591,195.561615 125.251740,192.055283 
	C130.481613,177.316101 135.384689,162.461334 140.548752,147.698318 
	C144.605713,136.100281 141.917953,138.137634 153.745850,138.200790 
	C157.599991,138.221375 159.298553,136.811417 160.721588,133.490540 
	C164.981018,123.550423 169.534866,113.735916 174.013794,103.890572 
	C179.013824,92.899773 185.160706,82.664558 193.930740,74.203613 
	C201.492615,66.908226 209.947113,61.571732 221.044785,62.793118 
	C227.342407,63.486217 230.584732,60.449554 232.118713,54.164623 
	C223.744080,53.168098 223.585876,47.067223 223.825439,40.597366 
	C223.923538,37.947922 223.029922,35.198647 223.452164,32.637344 
	C224.353394,27.170450 224.483276,20.896782 227.376205,16.601919 
	C231.411346,10.611306 237.684555,6.128216 243.000000,0.999997 
	C254.354233,1.000000 265.708466,1.000000 277.531342,0.999998 
z"/>
<path fill="#FBAC18" opacity="1.000000" stroke="none" 
	d="
M242.531342,0.999997 
	C237.684555,6.128216 231.411346,10.611306 227.376205,16.601919 
	C224.483276,20.896782 224.353394,27.170450 223.452164,32.637344 
	C223.029922,35.198647 223.923538,37.947922 223.825439,40.597366 
	C223.585876,47.067223 223.744080,53.168098 232.118713,54.164623 
	C230.584732,60.449554 227.342407,63.486217 221.044785,62.793118 
	C209.947113,61.571732 201.492615,66.908226 193.930740,74.203613 
	C185.160706,82.664558 179.013824,92.899773 174.013794,103.890572 
	C169.534866,113.735916 164.981018,123.550423 160.721588,133.490540 
	C159.298553,136.811417 157.599991,138.221375 153.745850,138.200790 
	C141.917953,138.137634 144.605713,136.100281 140.548752,147.698318 
	C135.384689,162.461334 130.481613,177.316101 125.251740,192.055283 
	C124.007591,195.561615 124.261360,197.654373 127.682899,199.816483 
	C138.689621,206.771713 138.359726,206.843185 134.633362,219.213654 
	C132.513474,226.251083 129.720535,232.487793 123.540825,236.940643 
	C121.934807,238.097885 120.816978,240.269608 120.055016,242.203873 
	C116.457314,251.336746 112.932625,260.503571 109.662048,269.757294 
	C108.506432,273.026978 107.018791,274.551147 103.287804,274.399414 
	C97.079521,274.146912 96.650307,274.991089 96.020256,281.087585 
	C93.762199,302.937073 91.489769,324.786987 88.880859,346.595795 
	C88.570953,349.186432 86.517242,351.864990 84.620583,353.894012 
	C82.259239,356.420135 79.212601,358.302887 76.476982,360.482422 
	C68.513100,366.827423 62.797180,374.578888 58.859440,384.183655 
	C47.878017,410.969055 36.063557,437.411804 24.889122,464.119995 
	C22.092142,470.805115 20.231855,477.907623 22.508787,485.406219 
	C22.900726,486.696991 22.038023,488.590637 21.303610,489.964569 
	C17.302500,497.449646 13.160120,504.859192 9.033167,512.647339 
	C6.334864,513.000000 3.669728,513.000000 1.003444,513.000000 
	C1.002296,342.432831 1.002296,171.865677 1.002296,1.000000 
	C81.353981,1.000000 161.708328,1.000000 242.531342,0.999997 
z"/>
<path fill="#FBAC19" opacity="1.000000" stroke="none" 
	d="
M58.468658,513.000000 
	C58.655415,506.050140 58.966660,499.043396 60.102642,492.173004 
	C60.727417,488.394379 61.976196,484.263580 64.245506,481.282715 
	C86.431976,452.139587 108.974991,423.268066 131.195404,394.150513 
	C134.891556,389.307098 138.058365,383.891357 140.554260,378.329285 
	C151.858353,353.138153 162.757095,327.765106 174.053375,302.570374 
	C175.119186,300.193268 177.729202,297.444641 180.016663,297.026611 
	C181.746536,296.710510 184.699448,299.436554 186.090256,301.496033 
	C196.701614,317.209198 206.813950,333.265045 217.663422,348.808075 
	C220.666855,353.110809 225.330292,356.498871 229.796417,359.453613 
	C232.943802,361.535950 233.369949,362.948792 231.581741,366.099823 
	C225.176529,377.386444 218.971222,388.787354 212.779785,400.193604 
	C211.765610,402.061981 210.842407,404.113037 210.485184,406.184540 
	C205.731491,433.750427 199.504471,460.960999 191.728714,487.841827 
	C189.438446,495.759308 188.370010,504.030182 186.870819,512.569580 
	C144.312439,513.000000 101.624878,513.000000 58.468658,513.000000 
z"/>
</svg>